<?xml version="1.0" standalone="no"?><!DOCTYPE svg PUBLIC "-//W3C//DTD SVG 1.1//EN" "http://www.w3.org/Graphics/SVG/1.1/DTD/svg11.dtd"><svg t="1526538994071" class="icon" style="" viewBox="0 0 1024 1024" version="1.1" xmlns="http://www.w3.org/2000/svg" p-id="2275" xmlns:xlink="http://www.w3.org/1999/xlink" width="12" height="12"><defs><style type="text/css"></style></defs><path d="M822.857143 822.857143V365.714286a18.285714 18.285714 0 1 1 36.571428 0v475.428571a18.285714 18.285714 0 0 1-18.285714 18.285714H182.857143a18.285714 18.285714 0 0 1-18.285714-18.285714V365.714286a18.285714 18.285714 0 0 1 36.571428 0v457.142857h621.714286z m-182.857143-402.285714V365.714286a18.285714 18.285714 0 1 1 36.571429 0v73.142857a18.285714 18.285714 0 0 1-18.285715 18.285714h-292.571428a18.285714 18.285714 0 0 1-18.285715-18.285714v-73.142857a18.285714 18.285714 0 0 1 36.571429 0v54.857143h256zM128 292.571429V182.857143a18.285714 18.285714 0 0 1 18.285714-18.285714h731.428572a18.285714 18.285714 0 0 1 18.285714 18.285714v109.714286a18.285714 18.285714 0 0 1-18.285714 18.285714H146.285714a18.285714 18.285714 0 0 1-18.285714-18.285714z m36.571429-18.285715h694.857142v-73.142857h-694.857142v73.142857z" p-id="2276"></path></svg>